<svg width="67" height="60" viewBox="0 0 67 60" fill="none" xmlns="http://www.w3.org/2000/svg">
<path d="M18.5 1H1V58.5H18.5V1Z" fill="white" stroke="black"/>
<path d="M22.5 46V58.5H34C57.5 58.5 57.5 28 38 28C54.5 28 54 1 34 1H22.5V13H29C35.4 13 35.5 24 29 24H22.5V34H29.5C37 34 37 46 29.5 46H22.5Z" fill="white" stroke="black"/>
<path d="M57.5 30.6562V59.1562H42.5V30.6562H37V20.1561H42.5C42.5 0.15608 56 0.656232 66 1.15615V12.6562C57.6 9.05618 56.8333 16.1562 57.5 20.1562H65V30.6562H57.5Z" fill="black" stroke="black"/>
</svg>
