<svg width="229" height="76" viewBox="0 0 229 76" fill="none" xmlns="http://www.w3.org/2000/svg">
<path d="M75.5 59.5H59V20H75.5V59.5Z" fill="white"/>
<path d="M99.5 29L83 45V2H99.5V29Z" fill="white"/>
<path d="M75.5 59.5H59V20H75.5V59.5Z" stroke="black"/>
<path d="M99.5 29L83 45V2H99.5V29Z" stroke="black"/>
<path d="M18 2H0.5V59.5H18V2Z" fill="white" stroke="black"/>
<circle cx="67" cy="8" r="7.5" fill="white" stroke="black"/>
<circle cx="140" cy="8" r="8" fill="black"/>
<path d="M22 47V59.5H33.5C57 59.5 57 29 37.5 29C54 29 53.5 2 33.5 2H22V14H28.5C34.9 14 35 25 28.5 25H22V35H29C36.5 35 36.5 47 29 47H22Z" fill="white" stroke="black"/>
<path d="M83 59.5V46L99.5 30V59.5H83Z" fill="black" stroke="black"/>
<path d="M124 59.5H107.5V2H124V59.5Z" fill="black"/>
<path d="M147.5 59.5H132.5V21H147.5V59.5Z" fill="black"/>
<path d="M124 59.5H107.5V2H124V59.5Z" stroke="black"/>
<path d="M147.5 59.5H132.5V21H147.5V59.5Z" stroke="black"/>
<path d="M205.5 75.0001H190L198 55.5L183 20.5H198L205.5 39.5L213 20.5H228L205.5 75.0001Z" fill="black"/>
<path d="M173.5 31V59.5H158.5V31H153V20.5H158.5C158.5 0.499952 172 1.0001 182 1.50002V13C173.6 9.40005 172.833 16.5 173.5 20.5H181V31H173.5Z" fill="black"/>
<path d="M205.5 75.0001H190L198 55.5L183 20.5H198L205.5 39.5L213 20.5H228L205.5 75.0001Z" stroke="black"/>
<path d="M173.5 31V59.5H158.5V31H153V20.5H158.5C158.5 0.499952 172 1.0001 182 1.50002V13C173.6 9.40005 172.833 16.5 173.5 20.5H181V31H173.5Z" stroke="black"/>
</svg>
